<svg width="16" height="18" viewBox="0 0 16 18" fill="none" xmlns="http://www.w3.org/2000/svg">
<path fill-rule="evenodd" clip-rule="evenodd" d="M0.544967 2.73005C0 3.79961 0 5.19974 0 8V10C0 12.8003 0 14.2004 0.544967 15.27C1.02433 16.2108 1.78924 16.9757 2.73005 17.455C3.79961 18 5.19974 18 8 18C10.8003 18 12.2004 18 13.27 17.455C14.2108 16.9757 14.9757 16.2108 15.455 15.27C16 14.2004 16 12.8003 16 10V8C16 5.19974 16 3.79961 15.455 2.73005C14.9757 1.78924 14.2108 1.02433 13.27 0.544967C12.2004 0 10.8003 0 8 0C5.19974 0 3.79961 0 2.73005 0.544967C1.78924 1.02433 1.02433 1.78924 0.544967 2.73005ZM8.75 4C8.75 3.58579 8.41421 3.25 8 3.25C7.58579 3.25 7.25 3.58579 7.25 4V7C7.25 7.41421 7.58579 7.75 8 7.75C8.41421 7.75 8.75 7.41421 8.75 7V4Z" fill="#55FD91"/>
</svg>
