<svg width="16" height="17" viewBox="0 0 16 17" fill="none" xmlns="http://www.w3.org/2000/svg">
<path fill-rule="evenodd" clip-rule="evenodd" d="M0.544967 2.73005C0 3.79961 0 5.19974 0 8V9C0 11.8003 0 13.2004 0.544967 14.27C1.02433 15.2108 1.78924 15.9757 2.73005 16.455C3.79961 17 5.19974 17 8 17C10.8003 17 12.2004 17 13.27 16.455C14.2108 15.9757 14.9757 15.2108 15.455 14.27C16 13.2004 16 11.8003 16 9V8C16 5.19974 16 3.79961 15.455 2.73005C14.9757 1.78924 14.2108 1.02433 13.27 0.544967C12.2004 0 10.8003 0 8 0C5.19974 0 3.79961 0 2.73005 0.544967C1.78924 1.02433 1.02433 1.78924 0.544967 2.73005ZM8.75 3.77778C8.75 3.38658 8.41421 3.06944 8 3.06944C7.58579 3.06944 7.25 3.38658 7.25 3.77778V6.61111C7.25 7.00231 7.58579 7.31944 8 7.31944C8.41421 7.31944 8.75 7.00231 8.75 6.61111V3.77778Z" fill="white"/>
</svg>
