<svg width="20" height="20" viewBox="0 0 20 20" fill="none" xmlns="http://www.w3.org/2000/svg">
<path fill-rule="evenodd" clip-rule="evenodd" d="M11.8057 0H10.6943H10.6942H10.6942H10.6942C9.09164 -1.66566e-05 7.81269 -2.99513e-05 6.80961 0.13483C5.77335 0.274153 4.91994 0.569658 4.2448 1.2448C3.56966 1.91994 3.27415 2.77335 3.13483 3.80961C2.99997 4.8127 2.99998 6.09165 3 7.69424V7.69425V7.69425V8.80575V8.80577C2.99998 10.4083 2.99997 11.6873 3.13483 12.6904C3.27415 13.7267 3.56966 14.5801 4.2448 15.2552C4.91994 15.9303 5.77335 16.2258 6.80961 16.3652C7.8127 16.5 9.09166 16.5 10.6943 16.5H11.8057C13.4083 16.5 14.6873 16.5 15.6904 16.3652C16.7267 16.2258 17.5801 15.9303 18.2552 15.2552C18.9303 14.5801 19.2258 13.7267 19.3652 12.6904C19.5 11.6873 19.5 10.4084 19.5 8.8058V8.80574V7.69426V7.69421C19.5 6.09164 19.5 4.81269 19.3652 3.80961C19.2258 2.77335 18.9303 1.91994 18.2552 1.2448C17.5801 0.569658 16.7267 0.274153 15.6904 0.13483C14.6873 -2.99495e-05 13.4084 -1.66566e-05 11.8058 0H11.8058H11.8058H11.8057ZM7.5 7.24999C7.5 5.73121 8.73121 4.5 10.25 4.5C11.7688 4.5 13 5.73121 13 7.24999C13 8.76877 11.7688 9.99998 10.25 9.99998C8.73121 9.99998 7.5 8.76877 7.5 7.24999ZM10.25 3C7.90279 3 6 4.90279 6 7.24999C6 9.59719 7.90279 11.5 10.25 11.5C11.023 11.5 11.7478 11.2936 12.3723 10.933L14.7197 13.2804C15.0126 13.5733 15.4875 13.5733 15.7804 13.2804C16.0733 12.9875 16.0733 12.5126 15.7804 12.2197L13.5225 9.96183C14.133 9.22596 14.5 8.28084 14.5 7.24999C14.5 4.90279 12.5972 3 10.25 3ZM1.5 3.75C1.5 3.33579 1.16421 3 0.75 3C0.335787 3 0 3.33579 0 3.75V6.80804C-1.08427e-05 9.58731 -1.93682e-05 11.7498 0.226358 13.4336C0.457209 15.1506 0.935773 16.4817 1.97703 17.523C3.01829 18.5642 4.34938 19.0428 6.06643 19.2736C7.75021 19.5 9.9127 19.5 12.692 19.5H15.75C16.1642 19.5 16.5 19.1642 16.5 18.75C16.5 18.3358 16.1642 18 15.75 18H12.75C9.90037 18 7.8386 17.9984 6.26631 17.787C4.71559 17.5785 3.75379 17.1784 3.03769 16.4623C2.32159 15.7462 1.92147 14.7844 1.71298 13.2337C1.50159 11.6614 1.5 9.59963 1.5 6.75V3.75Z" fill="white"/>
</svg>
