<svg width="20" height="20" viewBox="0 0 20 20" fill="none" xmlns="http://www.w3.org/2000/svg">
<path d="M10.591 2.31291L11.557 2.71541C11.7211 2.78378 11.7211 3.01626 11.557 3.08464L10.591 3.48713C10.5336 3.51102 10.4907 3.5602 10.4746 3.62021L10.1933 4.67535C10.1405 4.8733 9.85957 4.8733 9.80678 4.67535L9.52542 3.62021C9.50941 3.5602 9.46643 3.51102 9.40909 3.48713L8.44311 3.08464C8.27901 3.01626 8.27901 2.78378 8.44311 2.71541L9.40909 2.31291C9.46643 2.28902 9.50941 2.23985 9.52542 2.17983L9.80678 1.1247C9.85957 0.926742 10.1405 0.926743 10.1933 1.1247L10.4746 2.17983C10.4907 2.23985 10.5336 2.28902 10.591 2.31291Z" fill="#55FD91"/>
<path d="M7.00199 3.6773L8.32634 4.22262C8.57404 4.32461 8.57404 4.67543 8.32634 4.77743L7.00199 5.32274C6.92137 5.35594 6.85918 5.42257 6.83161 5.50528L6.28464 7.14621C6.19347 7.41972 5.8066 7.41972 5.71543 7.14621L5.16845 5.50528C5.14088 5.42257 5.07869 5.35594 4.99807 5.32274L3.67372 4.77743C3.42602 4.67543 3.42602 4.32461 3.67372 4.22262L4.99807 3.6773C5.07869 3.6441 5.14088 3.57748 5.16845 3.49477L5.71543 1.85384C5.8066 1.58033 6.19347 1.58033 6.28464 1.85384L6.83161 3.49477C6.85918 3.57748 6.92137 3.6441 7.00199 3.6773Z" fill="#55FD91"/>
<path d="M16.7624 13.8023L18.8718 14.7252C19.1115 14.83 19.1115 15.17 18.8718 15.2749L16.7624 16.1977C16.6862 16.2311 16.6272 16.2946 16.5996 16.3731L15.783 18.6952C15.689 18.9625 15.311 18.9625 15.217 18.6952L14.4004 16.3731C14.3728 16.2946 14.3139 16.2311 14.2377 16.1977L12.1283 15.2749C11.8886 15.17 11.8886 14.83 12.1283 14.7252L14.2377 13.8023C14.3139 13.769 14.3728 13.7055 14.4004 13.627L15.217 11.3048C15.311 11.0375 15.689 11.0375 15.783 11.3048L16.5996 13.627C16.6272 13.7055 16.6862 13.769 16.7624 13.8023Z" fill="#55FD91"/>
<path fill-rule="evenodd" clip-rule="evenodd" d="M17.4282 1.51816C16.6667 0.756641 15.432 0.756641 14.6705 1.51816L1.51829 14.6704C0.756763 15.4319 0.756763 16.6666 1.51829 17.4281L2.64966 18.5595C3.41118 19.321 4.64585 19.321 5.40737 18.5595L18.5596 5.40727C18.9403 5.02651 19.1307 4.52745 19.1307 4.02839C19.1307 3.52936 18.9403 3.03033 18.5596 2.64957C18.5596 2.64958 18.5596 2.64956 18.5596 2.64957L17.4282 1.51816ZM16.3675 2.57885C16.1918 2.40311 15.9069 2.40311 15.7311 2.57885L12.8674 5.44262L14.6351 7.21037L17.4989 4.34659C17.5807 4.26474 17.6245 4.1592 17.6301 4.05204C17.635 3.95789 17.6105 3.86248 17.5565 3.78079C17.5401 3.75584 17.5209 3.73218 17.4989 3.71022" fill="#55FD91"/>
</svg>
