<svg width="1024" height="1024" viewBox="0 0 1024 1024" fill="none" xmlns="http://www.w3.org/2000/svg">
<rect width="1024" height="1024" fill="black"/>
<path d="M670.701 402.302L635.645 473.739C616.113 513.493 572.006 539.216 523.296 539.216H416.772L325.688 719.891H483.167L531.929 623.232H565.095L516.374 719.891H657.234L706.028 623.232H739.194L690.432 719.891H847.911C863.549 688.844 870.773 656.983 870.773 625.936C870.773 521.427 789.001 426.073 670.711 402.313L670.701 402.302Z" fill="#55FD91"/>
<path d="M381.716 543.642L383.908 539.226L396.436 513.91H515.456C557.36 513.91 595.297 491.789 612.104 457.61L641.324 398.001L674.981 329.424L678.958 321.334C682.936 313.212 676.276 304.109 666.275 304.109H495.923C447.203 304.109 403.106 329.8 383.574 369.585L312.784 513.91H312.899L279.472 580.973L237.192 506.905H153.228L205.655 598.741C212.733 611.216 223.485 621.364 236.357 628.41C249.229 635.426 264.293 639.372 279.963 639.372C313.014 639.372 342.913 622.011 356.244 595.077L381.716 543.663M421.918 411.541C430.552 411.541 438.277 414.976 443.455 420.404C447.693 424.789 450.272 430.551 450.272 436.794C450.272 450.679 437.703 461.943 422.148 462.047H421.918C406.249 462.047 393.565 450.752 393.565 436.794C393.565 422.837 406.249 411.541 421.918 411.541Z" fill="#55FD91"/>
</svg>
