<svg width="821" height="179" viewBox="0 0 821 179" fill="none" xmlns="http://www.w3.org/2000/svg">
<path d="M409 148.847V67.844H438.639V80.888H440.085C443.338 71.3032 452.447 65.8261 463.146 65.8261C474.206 65.8261 482.881 71.159 485.773 81.4646H487.219C490.327 72.0238 499.87 65.8261 511.364 65.8261C527.196 65.8261 538.111 77.1406 538.111 93.6438V148.847H508.472V101.283C508.472 93.4997 505.075 89.6081 498.351 89.6081C492.134 89.6081 488.375 94.0042 488.375 101.283V148.847H458.736V101.283C458.736 93.5718 455.338 89.6081 448.688 89.6081C442.471 89.6081 438.639 94.0762 438.639 101.283V148.847H409Z" fill="white"/>
<path d="M567.303 58.4753C559.061 58.4753 552.194 51.9893 552.194 43.7737C552.194 35.486 559.061 29 567.303 29C575.616 29 582.411 35.486 582.411 43.7737C582.411 51.9893 575.616 58.4753 567.303 58.4753ZM552.483 148.847V67.844H582.122V148.847H552.483Z" fill="white"/>
<path d="M597.216 148.847V67.844H626.856V80.6718H628.302C631.627 71.7356 640.013 65.8261 651.29 65.8261C669.218 65.8261 678.471 77.0685 678.471 96.5265V148.847H648.832V103.085C648.832 94.6528 645.434 89.6081 637.916 89.6081C630.832 89.6081 626.856 95.2293 626.856 103.085V148.847H597.216Z" fill="white"/>
<path d="M720.819 150C700.795 150 688.867 134.866 688.867 108.418V108.273C688.867 81.6087 700.289 66.6909 720.819 66.6909C731.952 66.6909 740.41 71.9518 744.169 80.9601H745.615V38.0083H775.254V148.847H745.615V136.668H744.169C740.699 145.099 732.458 150 720.819 150ZM732.314 126.218C740.482 126.218 745.76 119.66 745.76 108.49V108.345C745.76 97.1751 740.338 90.4729 732.314 90.4729C724.289 90.4729 718.94 97.3192 718.94 108.273V108.418C718.94 119.516 724.217 126.218 732.314 126.218Z" fill="white"/>
<path d="M805.891 58.4753C797.65 58.4753 790.782 51.9893 790.782 43.7737C790.782 35.486 797.65 29 805.891 29C814.205 29 821 35.486 821 43.7737C821 51.9893 814.205 58.4753 805.891 58.4753ZM791.072 148.847V67.844H820.711V148.847H791.072Z" fill="white"/>
<path d="M222.842 42.2734L207.746 73.0281C199.335 90.1425 180.341 101.217 159.365 101.217H113.492L74.2676 179H142.084L163.082 137.387H177.365L156.384 179H217.043L238.055 137.387H252.338L231.339 179H299.155C305.889 165.634 309 151.917 309 138.551C309 93.5582 273.786 52.507 222.847 42.2779L222.842 42.2734Z" fill="#55FD91"/>
<path d="M98.395 103.122L99.3391 101.221L104.734 90.3224H155.988C174.033 90.3224 190.37 80.799 197.608 66.0846L210.191 40.422L224.685 10.8987L226.398 7.41564C228.111 3.91905 225.243 0 220.936 0H147.577C126.596 0 107.606 11.0605 99.1952 28.1884L68.7107 90.3224H68.7601L54.3652 119.194L36.1581 87.3068H0L22.5769 126.843C25.6249 132.214 30.2553 136.583 35.7984 139.616C41.3415 142.636 47.8286 144.335 54.5765 144.335C68.8095 144.335 81.6849 136.861 87.4258 125.266L98.395 103.131M115.708 46.2511C119.425 46.2511 122.752 47.7297 124.982 50.0668C126.807 51.9544 127.918 54.4353 127.918 57.1229C127.918 63.1003 122.505 67.9497 115.806 67.9946H115.708C108.96 67.9946 103.498 63.1318 103.498 57.1229C103.498 51.114 108.96 46.2511 115.708 46.2511Z" fill="#55FD91"/>
</svg>
