<svg width="16" height="20" viewBox="0 0 16 20" fill="none" xmlns="http://www.w3.org/2000/svg">
<path fill-rule="evenodd" clip-rule="evenodd" d="M6.25 0.759494C6.25 0.340037 6.58579 0 7 0H9C9.41421 0 9.75 0.340037 9.75 0.759494C9.75 1.17895 9.41421 1.51899 9 1.51899H8.75V3.8326C9.69734 3.9218 10.5968 4.17826 11.4192 4.57255L11.5878 4.27982L11.4783 4.22013C11.1135 4.02133 10.977 3.56075 11.1733 3.1914C11.3696 2.82204 11.8244 2.68378 12.1892 2.88258L13.7555 3.73629C14.1202 3.93508 14.2567 4.39566 14.0604 4.76502C13.8641 5.13437 13.4093 5.27264 13.0446 5.07384L12.9094 5.00015L12.7086 5.34866C14.7036 6.82185 16 9.20698 16 11.8987C16 16.3729 12.4183 20 8 20C3.58172 20 0 16.3729 0 11.8987C0 7.68064 3.18341 4.21549 7.25 3.8326V1.51899H7C6.58579 1.51899 6.25 1.17895 6.25 0.759494ZM3.40273 8.40712C3.65326 8.07726 4.12376 8.01295 4.45362 8.26348L8.45362 11.3014C8.78348 11.552 8.8478 12.0225 8.59727 12.3523C8.34674 12.6822 7.87624 12.7465 7.54638 12.496L3.54638 9.45801C3.21652 9.20748 3.1522 8.73698 3.40273 8.40712Z" fill="white"/>
</svg>
